<svg xmlns="http://www.w3.org/2000/svg" id="Layer_1" enable-background="new 0 0 32 32" viewBox="0 0 32 32"><path d="M16,21c2.79,0,5.061-2.271,5.061-5.061c0-1.737-0.997-3.164-2.259-4.971c-0.731-1.046-1.561-2.232-2.362-3.707   c-0.176-0.322-0.703-0.322-0.879,0c-0.802,1.475-1.631,2.661-2.362,3.707c-1.262,1.807-2.259,3.234-2.259,4.971   C10.939,18.729,13.21,21,16,21z M14.019,11.541c0.614-0.88,1.297-1.856,1.981-3.025c0.685,1.169,1.367,2.145,1.981,3.025   c1.207,1.728,2.079,2.976,2.079,4.398C20.061,18.179,18.239,20,16,20s-4.061-1.821-4.061-4.061   C11.939,14.517,12.812,13.269,14.019,11.541z"/><path d="M7,20.5c0,1.974,5.657,2.5,9,2.5s9-0.526,9-2.5c0-0.896-1.112-1.555-3.401-2.014c-0.268-0.056-0.534,0.12-0.589,0.392   s0.121,0.534,0.392,0.589c2.071,0.415,2.577,0.923,2.599,1.03C23.905,21.008,20.996,22,16,22s-7.905-0.992-8-1.497   c0.021-0.113,0.527-0.621,2.599-1.036c0.271-0.055,0.446-0.317,0.392-0.589s-0.323-0.447-0.589-0.392C8.112,18.945,7,19.604,7,20.5   z"/><path d="M22.616,16.715c-0.271-0.065-0.539,0.102-0.603,0.37c-0.064,0.269,0.102,0.538,0.37,0.603C25.188,18.357,27,19.461,27,20.5   c0,1.655-4.518,3.5-11,3.5S5,22.155,5,20.5c0-1.039,1.812-2.143,4.616-2.813c0.269-0.064,0.435-0.334,0.37-0.603   c-0.064-0.268-0.331-0.435-0.603-0.37C5.962,17.532,4,18.911,4,20.5c0,2.923,6.183,4.5,12,4.5s12-1.577,12-4.5   C28,18.911,26.038,17.532,22.616,16.715z"/></svg>