<svg xmlns="http://www.w3.org/2000/svg" viewBox="0 0 64 64"><path d="M52.3,64c-9.4,0-22.3-8.6-33-19.3c-7.8-7.8-13.8-16-16.9-23.1C-1,13.7-0.8,7.5,3.1,3.7
			c8.2-8.2,29.4-2.1,44.3,12.9c15,15,21.1,36.1,12.9,44.3C58.1,63,55.4,64,52.3,64z M13.7,2c-4,0-7.2,1-9.2,3.1
			C0.4,9.1,2.1,15.9,4.2,20.8c3,6.9,8.8,14.9,16.4,22.5c16,16,31.8,22.7,38.3,16.2c6.6-6.6,2.5-26.3-12.9-41.6
			C35.4,7.3,22.7,2,13.7,2z"/><path d="M11.1 15.1c-.3 0-.5-.1-.7-.3l-1.1-1.3c-.4-.4-.3-1 .1-1.4.4-.4 1-.3 1.4.1l1.1 1.3c.4.4.3 1-.1 1.4C11.5 15 11.3 15.1 11.1 15.1zM19.8 23.6c-.3 0-.5-.1-.7-.3l-1.1-1.3c-.4-.4-.3-1 .1-1.4.4-.4 1-.3 1.4.1l1.1 1.3c.4.4.3 1-.1 1.4C20.2 23.5 20 23.6 19.8 23.6zM29.9 22.3c-.3 0-.5-.1-.7-.3l-1.1-1.3c-.4-.4-.3-1 .1-1.4.4-.4 1-.3 1.4.1l1.1 1.3c.4.4.3 1-.1 1.4C30.4 22.2 30.1 22.3 29.9 22.3zM25.6 13.8c-.3 0-.5-.1-.7-.3l-1.1-1.3c-.4-.4-.3-1 .1-1.4.4-.4 1-.3 1.4.1l1.1 1.3c.4.4.3 1-.1 1.4C26 13.7 25.8 13.8 25.6 13.8zM41.6 25.4c-.3 0-.5-.1-.7-.3l-1.1-1.3c-.4-.4-.3-1 .1-1.4.4-.4 1-.3 1.4.1l1.1 1.3c.4.4.3 1-.1 1.4C42 25.3 41.8 25.4 41.6 25.4zM30.2 34.2c-.3 0-.5-.1-.7-.3l-1.1-1.3c-.4-.4-.3-1 .1-1.4.4-.3 1-.3 1.4.1l1.1 1.3c.4.4.3 1-.1 1.4C30.7 34.2 30.4 34.2 30.2 34.2zM20.4 36c-.3 0-.5-.1-.7-.3l-1.1-1.3c-.4-.4-.3-1 .1-1.4.4-.4 1-.3 1.4.1l1.1 1.3c.4.4.3 1-.1 1.4C20.8 36 20.6 36 20.4 36zM41.8 36c-.3 0-.5-.1-.7-.3L40 34.4c-.4-.4-.3-1 .1-1.4.4-.4 1-.3 1.4.1l1.1 1.3c.4.4.3 1-.1 1.4C42.3 36 42.1 36 41.8 36zM44 52c-.3 0-.5-.1-.7-.3l-1.1-1.3c-.4-.4-.3-1 .1-1.4.4-.4 1-.3 1.4.1l1.1 1.3c.4.4.3 1-.1 1.4C44.5 51.9 44.2 52 44 52zM33.5 48.2c-.3 0-.5-.1-.7-.3l-1.1-1.3c-.4-.4-.3-1 .1-1.4.4-.4 1-.3 1.4.1l1.1 1.3c.4.4.3 1-.1 1.4C34 48.1 33.7 48.2 33.5 48.2zM55 52.6c-.3 0-.5-.1-.7-.3L53.2 51c-.4-.4-.3-1 .1-1.4.4-.4 1-.3 1.4.1l1.1 1.3c.4.4.3 1-.1 1.4C55.5 52.5 55.3 52.6 55 52.6zM53.9 42.2c-.3 0-.5-.1-.7-.3l-1.1-1.3c-.4-.4-.3-1 .1-1.4.4-.4 1-.3 1.4.1l1.1 1.3c.4.4.3 1-.1 1.4C54.4 42.2 54.1 42.2 53.9 42.2z"/></svg>