<svg xmlns="http://www.w3.org/2000/svg" data-name="Layer 1" viewBox="0 0 512 512"><g data-name="&lt;Group&gt;"><path d="M486.061,262.457,401.317,143.75a8,8,0,0,0-13.016-.008l-36.682,51.243L262.511,70.259A7.909,7.909,0,0,0,256.005,67h0a7.914,7.914,0,0,0-6.5,3.25L160.21,194.931l-36.505-51.357A8.216,8.216,0,0,0,117.2,140h0a8.2,8.2,0,0,0-6.505,3.543L25.945,262.025c-.149.208-.288.473-.416.694-17.1,29.49-16.817,65.326.752,95.82,18.848,32.714,53.684,53.05,90.913,53.05a102.662,102.662,0,0,0,38.242-7.31,144.122,144.122,0,0,0,201.153.013,102.607,102.607,0,0,0,38.217,7.308c37.3,0,72.168-20.367,91.008-53.155,17.48-30.423,17.722-66.075.647-95.369C486.337,262.864,486.2,262.657,486.061,262.457ZM40.144,350.576c-14.832-25.744-15.176-54.682-.96-79.457l78-108.964,33.182,46.48-21.2,29.619q-.224.312-.416.644a127,127,0,0,0-17.522,68.184,137.556,137.556,0,0,0,18.593,64.476,147.839,147.839,0,0,0,13.8,19.965,86.912,86.912,0,0,1-26.426,4.078C85.669,395.6,56.145,378.349,40.144,350.576ZM256,429.186c-45.962,0-89-25.143-112.317-65.615a121.512,121.512,0,0,1-16.463-56.939A111.188,111.188,0,0,1,142.4,247.25L255.991,88.571,369.6,247.712a110.236,110.236,0,0,1,15.182,59,121.04,121.04,0,0,1-16.344,56.707C345.132,403.987,302.048,429.186,256,429.186Zm215.941-78.712C455.947,378.31,426.39,395.6,394.806,395.6a86.893,86.893,0,0,1-26.4-4.07,147.88,147.88,0,0,0,13.907-20.137,137.084,137.084,0,0,0,18.465-64.246,126.038,126.038,0,0,0-17.535-67.807c-.124-.213-.258-.419-.4-.62l-21.4-29.973L394.8,162.155l78.022,109.291C487,296.025,486.688,324.808,471.941,350.474Z" data-name="&lt;Compound Path&gt;"/></g></svg>